# This file uses centimeters as units for non-parametric coordinates.

mtllib cone.mtl
g default
v 0.000000 0.000000 -0.497345
v 0.097545 0.000000 -0.487737
v 0.191342 0.000000 -0.459285
v 0.277785 0.000000 -0.413080
v 0.353553 0.000000 -0.350898
v 0.415735 0.000000 -0.275130
v 0.461940 0.000000 -0.188687
v 0.490393 0.000000 -0.094889
v 0.500000 0.000000 0.002655
v 0.490393 0.000000 0.100200
v 0.461940 0.000000 0.193998
v 0.415735 0.000000 0.280441
v 0.000000 1.000000 0.002655
v 0.353553 0.000000 0.356209
v 0.277785 0.000000 0.418390
v 0.191342 0.000000 0.464596
v 0.097545 0.000000 0.493048
v 0.000000 0.000000 0.502655
v -0.097545 0.000000 0.493048
v -0.191342 0.000000 0.464596
v -0.277785 0.000000 0.418390
v -0.353554 0.000000 0.356209
v -0.415735 0.000000 0.280441
v -0.461940 0.000000 0.193996
v -0.490393 0.000000 0.100200
v -0.500000 0.000000 0.002655
v -0.490393 0.000000 -0.094891
v -0.461940 0.000000 -0.188687
v -0.415734 0.000000 -0.275131
v -0.353553 0.000000 -0.350899
v -0.277785 0.000000 -0.413080
v -0.191341 0.000000 -0.459285
v -0.097544 0.000000 -0.487737
vn 0.087797 0.445487 -0.890973
vn 0.087797 0.445487 -0.890973
vn 0.087797 0.445487 -0.890973
vn 0.259906 0.445510 -0.856720
vn 0.259906 0.445510 -0.856720
vn 0.259906 0.445510 -0.856720
vn 0.421995 0.445495 -0.789591
vn 0.421995 0.445495 -0.789591
vn 0.421995 0.445495 -0.789591
vn 0.567973 0.445478 -0.692067
vn 0.567973 0.445478 -0.692067
vn 0.567973 0.445478 -0.692067
vn 0.692067 0.445478 -0.567973
vn 0.692067 0.445478 -0.567973
vn 0.692067 0.445478 -0.567973
vn 0.789591 0.445495 -0.421995
vn 0.789591 0.445495 -0.421995
vn 0.789591 0.445495 -0.421995
vn 0.856720 0.445510 -0.259906
vn 0.856720 0.445510 -0.259906
vn 0.856720 0.445510 -0.259906
vn 0.890973 0.445487 -0.087797
vn 0.890973 0.445487 -0.087797
vn 0.890973 0.445487 -0.087797
vn 0.890973 0.445487 0.087797
vn 0.890973 0.445487 0.087797
vn 0.890973 0.445487 0.087797
vn 0.856720 0.445510 0.259906
vn 0.856720 0.445510 0.259906
vn 0.856720 0.445510 0.259906
vn 0.789591 0.445495 0.421995
vn 0.789591 0.445495 0.421995
vn 0.789591 0.445495 0.421995
vn 0.692067 0.445478 0.567973
vn 0.692067 0.445478 0.567973
vn 0.692067 0.445478 0.567973
vn 0.567973 0.445478 0.692067
vn 0.567973 0.445478 0.692067
vn 0.567973 0.445478 0.692067
vn 0.421995 0.445495 0.789591
vn 0.421995 0.445495 0.789591
vn 0.421995 0.445495 0.789591
vn 0.259906 0.445510 0.856720
vn 0.259906 0.445510 0.856720
vn 0.259906 0.445510 0.856720
vn 0.087797 0.445487 0.890973
vn 0.087797 0.445487 0.890973
vn 0.087797 0.445487 0.890973
vn -0.087797 0.445487 0.890973
vn -0.087797 0.445487 0.890973
vn -0.087797 0.445487 0.890973
vn -0.259906 0.445510 0.856720
vn -0.259906 0.445510 0.856720
vn -0.259906 0.445510 0.856720
vn -0.421995 0.445495 0.789591
vn -0.421995 0.445495 0.789591
vn -0.421995 0.445495 0.789591
vn -0.567973 0.445478 0.692067
vn -0.567973 0.445478 0.692067
vn -0.567973 0.445478 0.692067
vn -0.692067 0.445478 0.567973
vn -0.692067 0.445478 0.567973
vn -0.692067 0.445478 0.567973
vn -0.789591 0.445495 0.421995
vn -0.789591 0.445495 0.421995
vn -0.789591 0.445495 0.421995
vn -0.856720 0.445510 0.259906
vn -0.856720 0.445510 0.259906
vn -0.856720 0.445510 0.259906
vn -0.890973 0.445487 0.087797
vn -0.890973 0.445487 0.087797
vn -0.890973 0.445487 0.087797
vn -0.890973 0.445487 -0.087797
vn -0.890973 0.445487 -0.087797
vn -0.890973 0.445487 -0.087797
vn -0.856720 0.445510 -0.259906
vn -0.856720 0.445510 -0.259906
vn -0.856720 0.445510 -0.259906
vn -0.789591 0.445495 -0.421995
vn -0.789591 0.445495 -0.421995
vn -0.789591 0.445495 -0.421995
vn -0.692067 0.445478 -0.567973
vn -0.692067 0.445478 -0.567973
vn -0.692067 0.445478 -0.567973
vn -0.567973 0.445478 -0.692067
vn -0.567973 0.445478 -0.692067
vn -0.567973 0.445478 -0.692067
vn -0.421995 0.445495 -0.789591
vn -0.421995 0.445495 -0.789591
vn -0.421995 0.445495 -0.789591
vn -0.259906 0.445510 -0.856720
vn -0.259906 0.445510 -0.856720
vn -0.259906 0.445510 -0.856720
vn -0.087797 0.445487 -0.890973
vn -0.087797 0.445487 -0.890973
vn -0.087797 0.445487 -0.890973
vn 0.000000 -1.000000 0.000000
vn 0.000000 -1.000000 0.000000
vn 0.000000 -1.000000 0.000000
vn 0.000000 -1.000000 0.000000
vn 0.000000 -1.000000 0.000000
vn 0.000000 -1.000000 0.000000
vn 0.000000 -1.000000 0.000000
vn 0.000000 -1.000000 0.000000
vn 0.000000 -1.000000 0.000000
vn 0.000000 -1.000000 0.000000
vn 0.000000 -1.000000 0.000000
vn 0.000000 -1.000000 0.000000
vn 0.000000 -1.000000 0.000000
vn 0.000000 -1.000000 0.000000
vn 0.000000 -1.000000 0.000000
vn 0.000000 -1.000000 0.000000
vn 0.000000 -1.000000 0.000000
vn 0.000000 -1.000000 0.000000
vn 0.000000 -1.000000 0.000000
vn 0.000000 -1.000000 0.000000
vn 0.000000 -1.000000 0.000000
vn 0.000000 -1.000000 0.000000
vn 0.000000 -1.000000 0.000000
vn 0.000000 -1.000000 0.000000
vn 0.000000 -1.000000 0.000000
vn 0.000000 -1.000000 0.000000
vn 0.000000 -1.000000 0.000000
vn 0.000000 -1.000000 0.000000
vn 0.000000 -1.000000 0.000000
vn 0.000000 -1.000000 0.000000
vn 0.000000 -1.000000 0.000000
vn 0.000000 -1.000000 0.000000
s off
g Mesh
usemtl None
f 1//1 13//2 2//3
f 2//4 13//5 3//6
f 3//7 13//8 4//9
f 4//10 13//11 5//12
f 5//13 13//14 6//15
f 6//16 13//17 7//18
f 7//19 13//20 8//21
f 8//22 13//23 9//24
f 9//25 13//26 10//27
f 10//28 13//29 11//30
f 11//31 13//32 12//33
f 12//34 13//35 14//36
f 14//37 13//38 15//39
f 15//40 13//41 16//42
f 16//43 13//44 17//45
f 17//46 13//47 18//48
f 18//49 13//50 19//51
f 19//52 13//53 20//54
f 20//55 13//56 21//57
f 21//58 13//59 22//60
f 22//61 13//62 23//63
f 23//64 13//65 24//66
f 24//67 13//68 25//69
f 25//70 13//71 26//72
f 26//73 13//74 27//75
f 27//76 13//77 28//78
f 28//79 13//80 29//81
f 29//82 13//83 30//84
f 30//85 13//86 31//87
f 31//88 13//89 32//90
f 32//91 13//92 33//93
f 33//94 13//95 1//96
f 1//97 2//98 3//99 4//100 5//101 6//102 7//103 8//104 9//105 10//106 11//107 12//108 14//109 15//110 16//111 17//112 18//113 19//114 20//115 21//116 22//117 23//118 24//119 25//120 26//121 27//122 28//123 29//124 30//125 31//126 32//127 33//128
