# This file uses centimeters as units for non-parametric coordinates.

mtllib cylinder.mtl
g default
v 0.000000 0.000000 -0.498193
v 0.000000 1.000000 -0.498193
v 0.097545 0.000000 -0.488586
v 0.097545 1.000000 -0.488586
v 0.191342 0.000000 -0.460133
v 0.191342 1.000000 -0.460133
v 0.277785 0.000000 -0.413928
v 0.277785 1.000000 -0.413928
v 0.353553 0.000000 -0.351746
v 0.353553 1.000000 -0.351746
v 0.415735 0.000000 -0.275978
v 0.415735 1.000000 -0.275978
v 0.461940 0.000000 -0.189535
v 0.461940 1.000000 -0.189535
v 0.490393 0.000000 -0.095738
v 0.490393 1.000000 -0.095738
v 0.500000 0.000000 0.001807
v 0.500000 1.000000 0.001807
v 0.490393 0.000000 0.099352
v 0.490393 1.000000 0.099352
v 0.461940 0.000000 0.193149
v 0.461940 1.000000 0.193149
v 0.415735 0.000000 0.279592
v 0.415735 1.000000 0.279592
v 0.353553 0.000000 0.355360
v 0.353553 1.000000 0.355360
v 0.277785 0.000000 0.417542
v 0.277785 1.000000 0.417542
v 0.191342 0.000000 0.463747
v 0.191342 1.000000 0.463747
v 0.097545 0.000000 0.492200
v 0.097545 1.000000 0.492200
v 0.000000 0.000000 0.501807
v 0.000000 1.000000 0.501807
v -0.097545 0.000000 0.492200
v -0.097545 1.000000 0.492200
v -0.191342 0.000000 0.463747
v -0.191342 1.000000 0.463747
v -0.277785 0.000000 0.417542
v -0.277785 1.000000 0.417542
v -0.353554 0.000000 0.355360
v -0.353554 1.000000 0.355360
v -0.415735 0.000000 0.279592
v -0.415735 1.000000 0.279592
v -0.461940 0.000000 0.193148
v -0.461940 1.000000 0.193148
v -0.490393 0.000000 0.099352
v -0.490393 1.000000 0.099352
v -0.500000 0.000000 0.001807
v -0.500000 1.000000 0.001807
v -0.490393 0.000000 -0.095739
v -0.490393 1.000000 -0.095739
v -0.461940 0.000000 -0.189535
v -0.461940 1.000000 -0.189535
v -0.415734 0.000000 -0.275979
v -0.415734 1.000000 -0.275979
v -0.353553 0.000000 -0.351747
v -0.353553 1.000000 -0.351747
v -0.277785 0.000000 -0.413928
v -0.277785 1.000000 -0.413928
v -0.191341 0.000000 -0.460133
v -0.191341 1.000000 -0.460133
v -0.097544 0.000000 -0.488586
v -0.097544 1.000000 -0.488586
vn 0.097999 0.000000 -0.995187
vn 0.097999 0.000000 -0.995187
vn 0.097999 0.000000 -0.995187
vn 0.097999 0.000000 -0.995187
vn 0.290310 0.000000 -0.956933
vn 0.290310 0.000000 -0.956933
vn 0.290310 0.000000 -0.956933
vn 0.290310 0.000000 -0.956933
vn 0.471408 0.000000 -0.881915
vn 0.471408 0.000000 -0.881915
vn 0.471408 0.000000 -0.881915
vn 0.471408 0.000000 -0.881915
vn 0.634402 0.000000 -0.773003
vn 0.634402 0.000000 -0.773003
vn 0.634402 0.000000 -0.773003
vn 0.634402 0.000000 -0.773003
vn 0.773003 0.000000 -0.634402
vn 0.773003 0.000000 -0.634402
vn 0.773003 0.000000 -0.634402
vn 0.773003 0.000000 -0.634402
vn 0.881915 0.000000 -0.471408
vn 0.881915 0.000000 -0.471408
vn 0.881915 0.000000 -0.471408
vn 0.881915 0.000000 -0.471408
vn 0.956933 0.000000 -0.290310
vn 0.956933 0.000000 -0.290310
vn 0.956933 0.000000 -0.290310
vn 0.956933 0.000000 -0.290310
vn 0.995187 0.000000 -0.097999
vn 0.995187 0.000000 -0.097999
vn 0.995187 0.000000 -0.097999
vn 0.995187 0.000000 -0.097999
vn 0.995187 0.000000 0.097999
vn 0.995187 0.000000 0.097999
vn 0.995187 0.000000 0.097999
vn 0.995187 0.000000 0.097999
vn 0.956933 0.000000 0.290310
vn 0.956933 0.000000 0.290310
vn 0.956933 0.000000 0.290310
vn 0.956933 0.000000 0.290310
vn 0.881915 0.000000 0.471408
vn 0.881915 0.000000 0.471408
vn 0.881915 0.000000 0.471408
vn 0.881915 0.000000 0.471408
vn 0.773003 0.000000 0.634402
vn 0.773003 0.000000 0.634402
vn 0.773003 0.000000 0.634402
vn 0.773003 0.000000 0.634402
vn 0.634402 0.000000 0.773003
vn 0.634402 0.000000 0.773003
vn 0.634402 0.000000 0.773003
vn 0.634402 0.000000 0.773003
vn 0.471408 0.000000 0.881915
vn 0.471408 0.000000 0.881915
vn 0.471408 0.000000 0.881915
vn 0.471408 0.000000 0.881915
vn 0.290310 0.000000 0.956933
vn 0.290310 0.000000 0.956933
vn 0.290310 0.000000 0.956933
vn 0.290310 0.000000 0.956933
vn 0.097999 0.000000 0.995187
vn 0.097999 0.000000 0.995187
vn 0.097999 0.000000 0.995187
vn 0.097999 0.000000 0.995187
vn -0.097999 0.000000 0.995187
vn -0.097999 0.000000 0.995187
vn -0.097999 0.000000 0.995187
vn -0.097999 0.000000 0.995187
vn -0.290310 0.000000 0.956933
vn -0.290310 0.000000 0.956933
vn -0.290310 0.000000 0.956933
vn -0.290310 0.000000 0.956933
vn -0.471408 0.000000 0.881915
vn -0.471408 0.000000 0.881915
vn -0.471408 0.000000 0.881915
vn -0.471408 0.000000 0.881915
vn -0.634402 0.000000 0.773003
vn -0.634402 0.000000 0.773003
vn -0.634402 0.000000 0.773003
vn -0.634402 0.000000 0.773003
vn -0.773003 0.000000 0.634402
vn -0.773003 0.000000 0.634402
vn -0.773003 0.000000 0.634402
vn -0.773003 0.000000 0.634402
vn -0.881915 0.000000 0.471408
vn -0.881915 0.000000 0.471408
vn -0.881915 0.000000 0.471408
vn -0.881915 0.000000 0.471408
vn -0.956933 0.000000 0.290310
vn -0.956933 0.000000 0.290310
vn -0.956933 0.000000 0.290310
vn -0.956933 0.000000 0.290310
vn -0.995187 0.000000 0.097999
vn -0.995187 0.000000 0.097999
vn -0.995187 0.000000 0.097999
vn -0.995187 0.000000 0.097999
vn -0.995187 0.000000 -0.097999
vn -0.995187 0.000000 -0.097999
vn -0.995187 0.000000 -0.097999
vn -0.995187 0.000000 -0.097999
vn -0.956933 0.000000 -0.290310
vn -0.956933 0.000000 -0.290310
vn -0.956933 0.000000 -0.290310
vn -0.956933 0.000000 -0.290310
vn -0.881915 0.000000 -0.471408
vn -0.881915 0.000000 -0.471408
vn -0.881915 0.000000 -0.471408
vn -0.881915 0.000000 -0.471408
vn -0.773003 0.000000 -0.634402
vn -0.773003 0.000000 -0.634402
vn -0.773003 0.000000 -0.634402
vn -0.773003 0.000000 -0.634402
vn -0.634402 0.000000 -0.773003
vn -0.634402 0.000000 -0.773003
vn -0.634402 0.000000 -0.773003
vn -0.634402 0.000000 -0.773003
vn -0.471408 0.000000 -0.881915
vn -0.471408 0.000000 -0.881915
vn -0.471408 0.000000 -0.881915
vn -0.471408 0.000000 -0.881915
vn 0.000000 1.000000 0.000000
vn 0.000000 1.000000 0.000000
vn 0.000000 1.000000 0.000000
vn 0.000000 1.000000 0.000000
vn 0.000000 1.000000 0.000000
vn 0.000000 1.000000 0.000000
vn 0.000000 1.000000 0.000000
vn 0.000000 1.000000 0.000000
vn 0.000000 1.000000 0.000000
vn 0.000000 1.000000 0.000000
vn 0.000000 1.000000 0.000000
vn 0.000000 1.000000 0.000000
vn 0.000000 1.000000 0.000000
vn 0.000000 1.000000 0.000000
vn 0.000000 1.000000 0.000000
vn 0.000000 1.000000 0.000000
vn 0.000000 1.000000 0.000000
vn 0.000000 1.000000 0.000000
vn 0.000000 1.000000 0.000000
vn 0.000000 1.000000 0.000000
vn 0.000000 1.000000 0.000000
vn 0.000000 1.000000 0.000000
vn 0.000000 1.000000 0.000000
vn 0.000000 1.000000 0.000000
vn 0.000000 1.000000 0.000000
vn 0.000000 1.000000 0.000000
vn 0.000000 1.000000 0.000000
vn 0.000000 1.000000 0.000000
vn 0.000000 1.000000 0.000000
vn 0.000000 1.000000 0.000000
vn 0.000000 1.000000 0.000000
vn 0.000000 1.000000 0.000000
vn -0.290310 0.000000 -0.956933
vn -0.290310 0.000000 -0.956933
vn -0.290310 0.000000 -0.956933
vn -0.290310 0.000000 -0.956933
vn -0.097999 0.000000 -0.995187
vn -0.097999 0.000000 -0.995187
vn -0.097999 0.000000 -0.995187
vn -0.097999 0.000000 -0.995187
vn 0.000000 -1.000000 0.000000
vn 0.000000 -1.000000 0.000000
vn 0.000000 -1.000000 0.000000
vn 0.000000 -1.000000 0.000000
vn 0.000000 -1.000000 0.000000
vn 0.000000 -1.000000 0.000000
vn 0.000000 -1.000000 0.000000
vn 0.000000 -1.000000 0.000000
vn 0.000000 -1.000000 0.000000
vn 0.000000 -1.000000 0.000000
vn 0.000000 -1.000000 0.000000
vn 0.000000 -1.000000 0.000000
vn 0.000000 -1.000000 0.000000
vn 0.000000 -1.000000 0.000000
vn 0.000000 -1.000000 0.000000
vn 0.000000 -1.000000 0.000000
vn 0.000000 -1.000000 0.000000
vn 0.000000 -1.000000 0.000000
vn 0.000000 -1.000000 0.000000
vn 0.000000 -1.000000 0.000000
vn 0.000000 -1.000000 0.000000
vn 0.000000 -1.000000 0.000000
vn 0.000000 -1.000000 0.000000
vn 0.000000 -1.000000 0.000000
vn 0.000000 -1.000000 0.000000
vn 0.000000 -1.000000 0.000000
vn 0.000000 -1.000000 0.000000
vn 0.000000 -1.000000 0.000000
vn 0.000000 -1.000000 0.000000
vn 0.000000 -1.000000 0.000000
vn 0.000000 -1.000000 0.000000
vn 0.000000 -1.000000 0.000000
s off
g Mesh
usemtl initialShadingGroup
f 1//1 2//2 4//3 3//4
f 3//5 4//6 6//7 5//8
f 5//9 6//10 8//11 7//12
f 7//13 8//14 10//15 9//16
f 9//17 10//18 12//19 11//20
f 11//21 12//22 14//23 13//24
f 13//25 14//26 16//27 15//28
f 15//29 16//30 18//31 17//32
f 17//33 18//34 20//35 19//36
f 19//37 20//38 22//39 21//40
f 21//41 22//42 24//43 23//44
f 23//45 24//46 26//47 25//48
f 25//49 26//50 28//51 27//52
f 27//53 28//54 30//55 29//56
f 29//57 30//58 32//59 31//60
f 31//61 32//62 34//63 33//64
f 33//65 34//66 36//67 35//68
f 35//69 36//70 38//71 37//72
f 37//73 38//74 40//75 39//76
f 39//77 40//78 42//79 41//80
f 41//81 42//82 44//83 43//84
f 43//85 44//86 46//87 45//88
f 45//89 46//90 48//91 47//92
f 47//93 48//94 50//95 49//96
f 49//97 50//98 52//99 51//100
f 51//101 52//102 54//103 53//104
f 53//105 54//106 56//107 55//108
f 55//109 56//110 58//111 57//112
f 57//113 58//114 60//115 59//116
f 59//117 60//118 62//119 61//120
f 4//121 2//122 64//123 62//124 60//125 58//126 56//127 54//128 52//129 50//130 48//131 46//132 44//133 42//134 40//135 38//136 36//137 34//138 32//139 30//140 28//141 26//142 24//143 22//144 20//145 18//146 16//147 14//148 12//149 10//150 8//151 6//152
f 61//153 62//154 64//155 63//156
f 63//157 64//158 2//159 1//160
f 1//161 3//162 5//163 7//164 9//165 11//166 13//167 15//168 17//169 19//170 21//171 23//172 25//173 27//174 29//175 31//176 33//177 35//178 37//179 39//180 41//181 43//182 45//183 47//184 49//185 51//186 53//187 55//188 57//189 59//190 61//191 63//192
